<svg width="32" height="32" viewBox="0 0 32 32" fill="none" xmlns="http://www.w3.org/2000/svg">
<g id="IONIcon/L/logo/apple">
<path id="Vector" d="M21.6387 8.78461C19.1974 8.78461 18.1657 9.94953 16.4656 9.94953C14.7224 9.94953 13.3928 8.79308 11.2773 8.79308C9.2066 8.79308 6.99846 10.0573 5.59619 12.211C3.62721 15.248 3.96143 20.9678 7.15043 25.8407C8.29113 27.585 9.81449 29.5413 11.8125 29.5625H11.8489C13.5854 29.5625 14.1012 28.4254 16.491 28.4121H16.5273C18.8814 28.4121 19.3537 29.5558 21.0829 29.5558H21.1192C23.1172 29.5346 24.7223 27.3671 25.863 25.6294C26.6841 24.3797 26.9892 23.7524 27.6189 22.3386C23.0058 20.5876 22.2647 14.0479 26.827 11.5407C25.4344 9.79695 23.4775 8.78703 21.6326 8.78703L21.6387 8.78461Z" fill="#2D3748"/>
<path id="Vector_2" d="M21.1011 2.43903C19.648 2.53772 17.9527 3.46287 16.9597 4.67078C16.0588 5.76547 15.3177 7.38934 15.6083 8.96416H15.7246C17.2722 8.96416 18.8561 8.03234 19.7812 6.83836C20.6725 5.7019 21.3482 4.09135 21.1011 2.43903Z" fill="#2D3748"/>
</g>
</svg>
