<svg width="24" height="24" viewBox="0 0 24 24" fill="none" xmlns="http://www.w3.org/2000/svg">
<g id="IONIcon/L/logo/google">
<path id="Vector" d="M22.1799 10.3817L22.074 9.9322H12.3034V14.0675H18.1412C17.5351 16.9456 14.7226 18.4606 12.4253 18.4606C10.7537 18.4606 8.99166 17.7575 7.82541 16.6274C7.2101 16.0216 6.72031 15.3003 6.3841 14.505C6.04788 13.7097 5.87183 12.8558 5.86604 11.9924C5.86604 10.2505 6.64885 8.50814 7.78791 7.36205C8.92698 6.21595 10.6473 5.5747 12.3578 5.5747C14.3167 5.5747 15.7206 6.61486 16.2456 7.08924L19.1842 4.16611C18.3221 3.40861 15.954 1.49986 12.2631 1.49986C9.41541 1.49986 6.68495 2.59064 4.68901 4.58002C2.71932 6.53892 1.69979 9.37158 1.69979 11.9999C1.69979 14.6281 2.66448 17.3192 4.57323 19.2936C6.61276 21.3992 9.50119 22.4999 12.4754 22.4999C15.1815 22.4999 17.7465 21.4395 19.5746 19.5158C21.3718 17.622 22.3013 15.0017 22.3013 12.2549C22.3013 11.0985 22.1851 10.4117 22.1799 10.3817Z" fill="#2D3748"/>
</g>
</svg>
